<?xml version="1.0" encoding="UTF-8"?>
<svg version="1.1" xmlns="http://www.w3.org/2000/svg" width="150" height="150">
<path d="M0 0 C0.96421875 -0.01611328 1.9284375 -0.03222656 2.921875 -0.04882812 C19.20678905 -0.05974295 34.96370706 6.86712237 46.66625977 18.10791016 C58.71195008 30.28519029 65.78024576 45.53830322 65.95507812 62.671875 C65.83453108 82.92377849 60.95589095 99.17692155 46.40625 113.7265625 C33.22227692 125.98469478 18.05314113 131.68402898 0.25 131.625 C-0.71421875 131.64111328 -1.6784375 131.65722656 -2.671875 131.67382812 C-18.95678905 131.68474295 -34.71370706 124.75787763 -46.41625977 113.51708984 C-59.53615603 100.25386889 -65.74862422 84.37256382 -65.6875 65.9375 C-65.70361328 64.97328125 -65.71972656 64.0090625 -65.73632812 63.015625 C-65.74724295 46.73071095 -58.82037763 30.97379294 -47.57958984 19.27124023 C-34.31636889 6.15134397 -18.43506382 -0.06112422 0 0 Z " fill="#FBFCFC" transform="translate(74.375,8.6875)"/>
<path d="M0 0 C9.70857901 7.91563908 15.79996666 17.16602462 17.98828125 29.62109375 C18.48316875 35.08341852 18.50427844 40.55838767 18.48925781 46.03930664 C18.48827344 48.57874904 18.53027 51.11527967 18.57421875 53.65429688 C18.57941846 55.27733751 18.58211406 56.90038854 18.58203125 58.5234375 C18.59842651 59.27761459 18.61482178 60.03179169 18.63171387 60.80882263 C18.58190692 64.58210286 18.29998975 66.28094164 15.71411133 69.1027832 C13.04652345 70.58865235 11.77194763 71.10303776 8.78125 71.01171875 C8.03037109 70.99882813 7.27949219 70.9859375 6.50585938 70.97265625 C5.73693359 70.93914062 4.96800781 70.905625 4.17578125 70.87109375 C3.38751953 70.85304688 2.59925781 70.835 1.78710938 70.81640625 C-0.14636136 70.76953423 -2.0792016 70.69779785 -4.01171875 70.62109375 C-5.33171875 67.65109375 -6.65171875 64.68109375 -8.01171875 61.62109375 C-6.93921875 60.63109375 -5.86671875 59.64109375 -4.76171875 58.62109375 C2.47268097 51.40133856 4.35442519 43.63643218 4.44360352 33.61914062 C4.23574824 25.02365273 0.4448449 18.0605645 -5.13671875 11.68359375 C-12.32694437 5.25023399 -21.26352491 2.71174481 -30.7734375 3.14453125 C-40.44389075 4.56768601 -48.08042168 8.84609229 -54.01171875 16.62109375 C-59.52413415 25.62095563 -60.7673464 36.11208393 -58.36328125 46.39453125 C-56.31692025 51.37925677 -53.16004798 54.97899462 -49.3046875 58.69921875 C-48.01171875 60.62109375 -48.01171875 60.62109375 -48.1875 63.04296875 C-49.01421508 65.62890218 -49.94236018 68.12592376 -51.01171875 70.62109375 C-53.92937766 70.72915519 -56.84303 70.80842252 -59.76171875 70.87109375 C-60.58671875 70.90460938 -61.41171875 70.938125 -62.26171875 70.97265625 C-63.46054687 70.99199219 -63.46054687 70.99199219 -64.68359375 71.01171875 C-65.41674805 71.03266602 -66.14990234 71.05361328 -66.90527344 71.07519531 C-70.0742714 70.39203164 -71.13801507 69.25440001 -73.01171875 66.62109375 C-73.41082393 63.81097913 -73.57336372 61.40129662 -73.54296875 58.59375 C-73.54679565 57.80898788 -73.55062256 57.02422577 -73.55456543 56.21568298 C-73.55728527 54.5522229 -73.54991888 52.88872011 -73.53320312 51.2253418 C-73.51204996 48.7227778 -73.53286398 46.22317025 -73.55859375 43.72070312 C-73.58452865 29.50412887 -71.3097722 17.84630785 -62.01171875 6.62109375 C-61.5115625 5.98558594 -61.01140625 5.35007812 -60.49609375 4.6953125 C-45.62979383 -12.2357513 -17.50759549 -12.83463582 0 0 Z " fill="#0582CD" transform="translate(101.01171875,34.37890625)"/>
<path d="M0 0 C6.24869909 4.46787254 11.18249639 10.50267397 13.140625 18.046875 C14.55097592 27.93449648 13.85729761 37.4990021 7.90234375 45.8359375 C6.50604469 47.48370274 5.01386785 49.04947109 3.50390625 50.59375 C0.50390625 49.59375 0.50390625 49.59375 -1.18359375 46.59375 C-3.24780798 41.3629663 -3.26357864 35.89620468 -1.49609375 30.59375 C-0.98345702 24.44210922 -1.56576702 20.46045552 -5.49609375 15.59375 C-9.16312193 12.10560124 -12.07005726 11.30095099 -16.99609375 11.09375 C-21.89567129 11.28014697 -24.77150833 12.24162312 -28.49609375 15.59375 C-32.70295717 20.38087044 -32.68995575 24.48709685 -32.49609375 30.59375 C-32.16609375 31.25375 -31.83609375 31.91375 -31.49609375 32.59375 C-30.68501072 39.74723642 -31.84958137 44.44026037 -35.49609375 50.59375 C-39.04574852 49.15698497 -40.56697317 47.48073102 -42.62109375 44.28125 C-43.11867188 43.52199219 -43.61625 42.76273438 -44.12890625 41.98046875 C-48.32227522 34.66004463 -48.54776958 26.83880536 -47.49609375 18.59375 C-46.33495585 14.83684513 -44.72304378 11.82005156 -42.49609375 8.59375 C-42.12355469 8.01238281 -41.75101563 7.43101563 -41.3671875 6.83203125 C-32.11276614 -5.96938088 -12.95478472 -7.29847027 0 0 Z " fill="#0482CD" transform="translate(90.49609375,43.40625)"/>
<path d="M0 0 C4.45146251 2.18526342 7.18885145 4.9394521 10 9 C11.39941747 13.19825241 11.93102351 17.87194626 10.125 22 C9.75375 22.66 9.3825 23.32 9 24 C7.2723572 28.74073412 6.39976247 31.54356827 8.5546875 36.2109375 C9.30393591 37.61216347 10.07805809 39.00033968 10.875 40.375 C15 47.87623762 15 47.87623762 15 50 C1.14 50 -12.72 50 -27 50 C-26.01 47.03 -25.02 44.06 -24 41 C-23.814375 40.071875 -23.62875 39.14375 -23.4375 38.1875 C-23 36 -23 36 -21.984375 34.18359375 C-20.81320069 31.58563169 -20.76591239 29.7126091 -20.8125 26.875 C-20.81894531 26.00617188 -20.82539062 25.13734375 -20.83203125 24.2421875 C-20.8602493 21.9635455 -20.8602493 21.9635455 -22 20 C-22.37364646 14.39530309 -22.20860998 10.81291497 -19 6 C-12.99917228 0.07918331 -8.26360952 -0.84155571 0 0 Z " fill="#F8FBFD" transform="translate(79,54)"/>
<path d="M0 0 C0.96421875 -0.01611328 1.9284375 -0.03222656 2.921875 -0.04882812 C19.20678905 -0.05974295 34.96370706 6.86712237 46.66625977 18.10791016 C58.71195008 30.28519029 65.78024576 45.53830322 65.95507812 62.671875 C65.83453108 82.92377849 60.95589095 99.17692155 46.40625 113.7265625 C33.22227692 125.98469478 18.05314113 131.68402898 0.25 131.625 C-0.71421875 131.64111328 -1.6784375 131.65722656 -2.671875 131.67382812 C-18.95678905 131.68474295 -34.71370706 124.75787763 -46.41625977 113.51708984 C-59.53615603 100.25386889 -65.74862422 84.37256382 -65.6875 65.9375 C-65.70361328 64.97328125 -65.71972656 64.0090625 -65.73632812 63.015625 C-65.74724295 46.73071095 -58.82037763 30.97379294 -47.57958984 19.27124023 C-34.31636889 6.15134397 -18.43506382 -0.06112422 0 0 Z M-42.375 18.3125 C-43.06335938 18.91835938 -43.75171875 19.52421875 -44.4609375 20.1484375 C-55.69443943 30.69329563 -62.78932866 45.29942735 -63.54296875 60.7578125 C-63.63857329 78.76970762 -59.67559885 94.57942635 -47.375 108.3125 C-46.50294922 109.30443359 -46.50294922 109.30443359 -45.61328125 110.31640625 C-34.8983464 121.77030213 -19.98144744 128.92772811 -4.23828125 129.515625 C13.09555097 129.8191283 28.9756179 125.46269009 42.25 113.75 C43.72861127 112.29110355 45.18970868 110.81403554 46.625 109.3125 C47.1715625 108.796875 47.718125 108.28125 48.28125 107.75 C59.31409015 96.48241857 64.12596067 79.37660892 63.97705078 64.08007812 C63.4996669 48.36921001 57.96641165 35.11543878 47.625 23.3125 C47.05394531 22.63574219 46.48289062 21.95898438 45.89453125 21.26171875 C36.07233122 10.47614729 20.21427039 2.85447053 5.65625 2.109375 C-12.8599278 1.78625195 -28.19379709 5.83091691 -42.375 18.3125 Z " fill="#505152" transform="translate(74.375,8.6875)"/>
<path d="M0 0 C8.58 0 17.16 0 26 0 C27.32 2.59875 28.64 5.1975 30 7.875 C30.41765625 8.69210449 30.8353125 9.50920898 31.265625 10.35107422 C31.59046875 10.9957666 31.9153125 11.64045898 32.25 12.3046875 C32.58515625 12.96452637 32.9203125 13.62436523 33.265625 14.30419922 C34 16 34 16 34 18 C20.14 18 6.28 18 -8 18 C-5.36 12.06 -2.72 6.12 0 0 Z " fill="#0281CD" transform="translate(60,86)"/>
<path d="M0 0 C8.33192923 4.97585144 14.31072753 12.22829182 16.79296875 21.66796875 C17.98254461 31.68377266 17.29689152 40.83647049 11.00390625 48.984375 C9.79439248 50.37556471 8.55579878 51.74235622 7.28125 53.07421875 C5.70114479 54.61528557 5.70114479 54.61528557 4.79296875 56.66796875 C5.12296875 57.65796875 5.45296875 58.64796875 5.79296875 59.66796875 C2.79296875 58.66796875 2.79296875 58.66796875 1.1875 55.9453125 C-0.27734375 52.85286458 -1.7421875 49.76041667 -3.20703125 46.66796875 C-11.45703125 46.33796875 -19.70703125 46.00796875 -28.20703125 45.66796875 C-28.20703125 45.33796875 -28.20703125 45.00796875 -28.20703125 44.66796875 C-15.83203125 44.17296875 -15.83203125 44.17296875 -3.20703125 43.66796875 C-2.87703125 41.68796875 -2.54703125 39.70796875 -2.20703125 37.66796875 C-1.87703125 37.66796875 -1.54703125 37.66796875 -1.20703125 37.66796875 C-1.08585937 38.415625 -0.9646875 39.16328125 -0.83984375 39.93359375 C-0.67226562 40.9184375 -0.5046875 41.90328125 -0.33203125 42.91796875 C-0.16960937 43.8925 -0.0071875 44.86703125 0.16015625 45.87109375 C0.74152723 48.44060992 1.5013714 50.38867931 2.79296875 52.66796875 C7.6860221 50.61705064 9.41978511 47.23823407 11.79296875 42.66796875 C15.06454582 34.56692076 15.00948906 24.90185398 11.82421875 16.76171875 C7.37620803 7.7309091 1.3295252 3.69803945 -7.95703125 0.29296875 C-15.82203151 -1.3429513 -24.6254361 -0.52809072 -31.57421875 3.5859375 C-32.11304687 3.94300781 -32.651875 4.30007812 -33.20703125 4.66796875 C-34.07328125 5.20421875 -34.93953125 5.74046875 -35.83203125 6.29296875 C-43.08327191 13.54420941 -45.52232194 21.42874515 -45.59863281 31.3996582 C-45.44190702 39.8810084 -41.9968032 46.492212 -36.20703125 52.66796875 C-35.21703125 53.32796875 -34.22703125 53.98796875 -33.20703125 54.66796875 C-34.29771793 58.44342263 -35.11534035 61.13840347 -38.20703125 63.66796875 C-38.53703125 63.00796875 -38.86703125 62.34796875 -39.20703125 61.66796875 C-38.87703125 61.04921875 -38.54703125 60.43046875 -38.20703125 59.79296875 C-37.02496653 57.76831175 -37.02496653 57.76831175 -37.43359375 55.76953125 C-38.37772792 53.20415658 -39.67420936 51.86604005 -41.58203125 49.91796875 C-48.20780288 42.46227501 -48.90764313 35.28815043 -48.55078125 25.515625 C-47.64719166 15.40158241 -41.92714729 9.26051409 -34.89453125 2.41796875 C-23.83871611 -4.78116669 -12.00218415 -5.66021102 0 0 Z " fill="#DFEFF7" transform="translate(89.20703125,40.33203125)"/>
<path d="M0 0 C0.9583374 0.00523682 1.9166748 0.01047363 2.90405273 0.01586914 C4.45576172 0.02070312 4.45576172 0.02070312 6.03881836 0.02563477 C7.12743164 0.03401367 8.21604492 0.04239258 9.33764648 0.05102539 C10.97636719 0.05779297 10.97636719 0.05779297 12.64819336 0.06469727 C15.35723144 0.07652713 18.06616248 0.09300996 20.77514648 0.11352539 C21.77514648 2.11352539 21.77514648 2.11352539 21.77514648 11.11352539 C13.52514648 11.11352539 5.27514648 11.11352539 -3.22485352 11.11352539 C-3.22485352 0.1645514 -3.22485352 0.1645514 0 0 Z " fill="#0D85CE" transform="translate(64.224853515625,72.886474609375)"/>
<path d="M0 0 C14.19 0 28.38 0 43 0 C43 1.65 43 3.3 43 5 C41.07742825 6.92257175 38.21914892 6.12908424 35.66125488 6.13894653 C34.77272827 6.1369223 33.88420166 6.13489807 32.96875 6.1328125 C32.06249878 6.13376923 31.15624756 6.13472595 30.22253418 6.13571167 C28.30248953 6.13639353 26.38244259 6.13453882 24.46240234 6.13037109 C21.51264296 6.12502292 18.56303586 6.13031588 15.61328125 6.13671875 C13.75260383 6.13605797 11.8919265 6.13477681 10.03125 6.1328125 C8.69846008 6.13584885 8.69846008 6.13584885 7.33874512 6.13894653 C1.11494988 6.11494988 1.11494988 6.11494988 0 5 C0 3.35 0 1.7 0 0 Z " fill="#0580CC" transform="translate(52,106)"/>
<path d="M0 0 C7.59 0 15.18 0 23 0 C22.67 2.31 22.34 4.62 22 7 C18.52085059 7.02887814 15.04173169 7.04675687 11.5625 7.0625 C10.07266602 7.07506836 10.07266602 7.07506836 8.55273438 7.08789062 C7.60849609 7.09111328 6.66425781 7.09433594 5.69140625 7.09765625 C4.37958374 7.10551147 4.37958374 7.10551147 3.04125977 7.11352539 C1 7 1 7 0 6 C0 4.02 0 2.04 0 0 Z " fill="#1687CE" transform="translate(62,114)"/>
<path d="M0 0 C0 0.66 0 1.32 0 2 C-1.50848699 3.04938225 -3.05873368 4.03898704 -4.625 5 C-10.99311437 9.2996063 -14.58311307 14.74933922 -17 22 C-17.92552577 33.64840296 -16.75166665 41.29176473 -9.875 51 C-7.96917519 53.18494886 -7.96917519 53.18494886 -5 55 C-6.09068668 58.77545388 -6.9083091 61.47043472 -10 64 C-10.33 63.34 -10.66 62.68 -11 62 C-10.505 61.071875 -10.505 61.071875 -10 60.125 C-8.81793528 58.100343 -8.81793528 58.100343 -9.2265625 56.1015625 C-10.17069667 53.53618783 -11.46717811 52.1980713 -13.375 50.25 C-20.00077163 42.79430626 -20.70061188 35.62018168 -20.34375 25.84765625 C-19.439347 15.72450902 -13.66344928 9.04165605 -6.1875 2.5625 C-2.6 0 -2.6 0 0 0 Z " fill="#E7F2F9" transform="translate(61,40)"/>
<path d="M0 0 C0.66 0.66 1.32 1.32 2 2 C1.9375 4.5 1.9375 4.5 1 7 C-1.3125 8.5 -1.3125 8.5 -4 9 C-6.3125 7.625 -6.3125 7.625 -8 6 C-7.625 3.0625 -7.625 3.0625 -7 0 C-4.29393021 -1.35303489 -2.8671629 -0.7884698 0 0 Z " fill="#EFF6FA" transform="translate(40,91)"/>
<path d="M0 0 C0.33 0 0.66 0 1 0 C1.08636719 0.66644531 1.17273438 1.33289063 1.26171875 2.01953125 C2.37730663 9.33737838 4.66127661 15.41175574 8 22 C5 21 5 21 3.39453125 18.27734375 C1.9296875 15.18489583 0.46484375 12.09244792 -1 9 C-9.25 8.67 -17.5 8.34 -26 8 C-26 7.67 -26 7.34 -26 7 C-13.625 6.505 -13.625 6.505 -1 6 C-0.67 4.02 -0.34 2.04 0 0 Z " fill="#C6E0EF" transform="translate(87,78)"/>
<path d="M0 0 C0.99 0.33 1.98 0.66 3 1 C3.495 2.485 3.495 2.485 4 4 C1.69179492 5.15410254 0.39215724 5.1210297 -2.17431641 5.11352539 C-3.46542831 5.11341209 -3.46542831 5.11341209 -4.78262329 5.11329651 C-5.71287323 5.10813522 -6.64312317 5.10297394 -7.6015625 5.09765625 C-8.55316254 5.0962413 -9.50476257 5.09482635 -10.48519897 5.09336853 C-13.53183097 5.08776012 -16.57839013 5.07520619 -19.625 5.0625 C-21.68749894 5.05748608 -23.74999903 5.05292299 -25.8125 5.04882812 C-30.87502817 5.03778796 -35.93750173 5.02051767 -41 5 C-41 4.67 -41 4.34 -41 4 C-27.14 4 -13.28 4 1 4 C0.505 2.02 0.505 2.02 0 0 Z " fill="#E5F1F7" transform="translate(93,100)"/>
<path d="M0 0 C4.22480792 1.56474367 6.35761529 4.45364158 9 8 C10.3125 10.875 10.3125 10.875 11 13 C10.01 13.495 10.01 13.495 9 14 C8.60167969 13.32453125 8.20335938 12.6490625 7.79296875 11.953125 C7.26316406 11.06109375 6.73335938 10.1690625 6.1875 9.25 C5.66542969 8.36828125 5.14335938 7.4865625 4.60546875 6.578125 C3.17453304 4.28027203 1.66105577 2.13493054 0 0 Z " fill="#F3F9FC" transform="translate(93,45)"/>
<path d="M0 0 C0.99 0.495 0.99 0.495 2 1 C3.01467144 6.35008578 2.99956022 10.66901216 2 16 C1.67 16 1.34 16 1 16 C0.67 10.72 0.34 5.44 0 0 Z " fill="#D8EBF6" transform="translate(103,58)"/>
<path d="M0 0 C0.66 0.33 1.32 0.66 2 1 C-0.83430453 4.2542015 -2.68607774 5.5206753 -7 6 C-6 3 -6 3 -3.0625 1.25 C-2.051875 0.8375 -1.04125 0.425 0 0 Z " fill="#58595A" transform="translate(104,130)"/>
<path d="M0 0 C0 3 0 3 -2.5 5.6875 C-3.325 6.450625 -4.15 7.21375 -5 8 C-5.66 7.67 -6.32 7.34 -7 7 C-2.25 1.125 -2.25 1.125 0 0 Z " fill="#1280CB" transform="translate(55,45)"/>
<path d="M0 0 C5.75 1.625 5.75 1.625 8 5 C4.40142046 5 2.90548882 4.04169485 0 2 C0 1.34 0 0.68 0 0 Z " fill="#E1EFF7" transform="translate(86,40)"/>
</svg>
