<?xml version="1.0" encoding="UTF-8"?>
<svg version="1.1" xmlns="http://www.w3.org/2000/svg" width="150" height="150">
<path d="M0 0 C11.93999104 10.01904611 21.75420815 24.34577071 23.75 40.125 C25.49373502 61.89833415 22.13280346 79.76701618 7.796875 96.8515625 C-2.58601979 108.38370901 -17.32927675 117.09023346 -32.98144531 118.34375 C-55.07465729 119.49631404 -72.47410546 115.22907 -89.25 100.125 C-101.74111422 88.30213469 -108.20872247 72.25001771 -108.71826172 55.29516602 C-108.92673847 34.47154594 -102.90117592 18.49124239 -88.453125 3.2265625 C-64.04032591 -19.82996998 -26.11262396 -20.05638286 0 0 Z " fill="#FBFCFD" transform="translate(117.25,22.875)"/>
<path d="M0 0 C1.03439713 -0.00622879 2.06879425 -0.01245758 3.13453674 -0.01887512 C4.2502153 -0.00966537 5.36589386 -0.00045563 6.51538086 0.0090332 C7.66058701 0.0085347 8.80579315 0.00803619 9.98570251 0.00752258 C12.40747818 0.00986414 14.82925622 0.01959737 17.25097656 0.03613281 C20.96888859 0.05974247 24.68608474 0.05669201 28.40405273 0.05004883 C30.75366641 0.05562477 33.10327705 0.06273412 35.45288086 0.0715332 C36.57058365 0.0706218 37.68828644 0.06971039 38.83985901 0.06877136 C39.87110397 0.07830338 40.90234894 0.08783539 41.96484375 0.09765625 C42.87512833 0.10226364 43.7854129 0.10687103 44.72328186 0.11161804 C46.91772461 0.37231445 46.91772461 0.37231445 48.91772461 2.37231445 C49.17651367 4.77075195 49.17651367 4.77075195 49.18334961 7.74731445 C49.1872168 9.34833008 49.1872168 9.34833008 49.19116211 10.98168945 C49.18342773 12.1005957 49.17569336 13.21950195 49.16772461 14.37231445 C49.17932617 16.05067383 49.17932617 16.05067383 49.19116211 17.76293945 C49.18858398 18.8302832 49.18600586 19.89762695 49.18334961 20.99731445 C49.18109375 21.97958008 49.17883789 22.9618457 49.17651367 23.97387695 C48.91772461 26.37231445 48.91772461 26.37231445 46.91772461 28.37231445 C44.71875 28.62768555 44.71875 28.62768555 42.01538086 28.64575195 C40.55648437 28.67668945 40.55648437 28.67668945 39.06811523 28.70825195 C37.01351126 28.73424315 34.95879459 28.75250267 32.90405273 28.76293945 C31.93016602 28.78614258 30.9562793 28.8093457 29.95288086 28.83325195 C29.05964111 28.84146973 28.16640137 28.8496875 27.24609375 28.8581543 C24.73873302 29.17374552 24.73873302 29.17374552 23.10302734 31.40600586 C22.71187744 32.0548877 22.32072754 32.70376953 21.91772461 33.37231445 C19.98022461 32.55981445 19.98022461 32.55981445 17.91772461 31.37231445 C17.58772461 30.38231445 17.25772461 29.39231445 16.91772461 28.37231445 C16.26698975 28.3880249 15.61625488 28.40373535 14.94580078 28.41992188 C11.99903037 28.48226094 9.05239863 28.52130129 6.10522461 28.55981445 C5.08106445 28.58495117 4.0569043 28.61008789 3.00170898 28.63598633 C1.52734375 28.65048828 1.52734375 28.65048828 0.02319336 28.6652832 C-0.88277588 28.68099365 -1.78874512 28.6967041 -2.72216797 28.71289062 C-5.08227539 28.37231445 -5.08227539 28.37231445 -6.87646484 27.16650391 C-8.47137779 24.79334836 -8.46984435 23.22090709 -8.48071289 20.37231445 C-8.48458008 19.40293945 -8.48844727 18.43356445 -8.49243164 17.43481445 C-8.48083008 16.42418945 -8.46922852 15.41356445 -8.45727539 14.37231445 C-8.46887695 13.36168945 -8.48047852 12.35106445 -8.49243164 11.30981445 C-8.48856445 10.34043945 -8.48469727 9.37106445 -8.48071289 8.37231445 C-8.4773291 7.48543945 -8.47394531 6.59856445 -8.47045898 5.68481445 C-7.63358758 0.69937673 -4.62346474 -0.00319415 0 0 Z " fill="#F5FAFD" transform="translate(54.082275390625,33.627685546875)"/>
<path d="M0 0 C11.93999104 10.01904611 21.75420815 24.34577071 23.75 40.125 C25.49373502 61.89833415 22.13280346 79.76701618 7.796875 96.8515625 C-2.58601979 108.38370901 -17.32927675 117.09023346 -32.98144531 118.34375 C-55.07465729 119.49631404 -72.47410546 115.22907 -89.25 100.125 C-101.74111422 88.30213469 -108.20872247 72.25001771 -108.71826172 55.29516602 C-108.92673847 34.47154594 -102.90117592 18.49124239 -88.453125 3.2265625 C-64.04032591 -19.82996998 -26.11262396 -20.05638286 0 0 Z M-89.25 9.125 C-101.65882416 24.651312 -107.14407176 41.3459228 -105.25 61.125 C-102.20090519 79.57356357 -92.38720921 94.21166744 -77.36328125 105.08203125 C-72.84931177 108.04414673 -68.30545454 110.25124868 -63.25 112.125 C-62.425 112.44339844 -61.6 112.76179688 -60.75 113.08984375 C-48.56073746 117.12196261 -34.26305509 116.29689779 -22.25 112.125 C-21.23292969 111.77308594 -20.21585937 111.42117187 -19.16796875 111.05859375 C-12.22198505 108.41125657 -6.8656622 104.94304415 -1.25 100.125 C-0.43402344 99.50753906 0.38195312 98.89007813 1.22265625 98.25390625 C9.36588021 91.39446721 14.36392782 82.05747839 17.75 72.125 C18.06839844 71.24328125 18.38679688 70.3615625 18.71484375 69.453125 C23.47777421 54.61560891 21.16694806 37.79371548 14.625 23.875 C5.56783443 7.08703202 -8.05669501 -3.39170141 -26.046875 -9.296875 C-48.74795366 -15.25389564 -73.32889977 -8.20683063 -89.25 9.125 Z " fill="#4E4F50" transform="translate(117.25,22.875)"/>
<path d="M0 0 C-1 3 -1 3 -3 4 C-3 4.99 -3 5.98 -3 7 C-0.04200997 8.47899501 2.6483576 8.13178874 5.9375 8.125 C7.80728516 8.12886719 7.80728516 8.12886719 9.71484375 8.1328125 C13.00676297 8.15199431 13.00676297 8.15199431 16 7 C16 6.01 16 5.02 16 4 C15.01 3.67 14.02 3.34 13 3 C13 2.01 13 1.02 13 0 C17.75 0.75 17.75 0.75 20 3 C20.23638693 5.61720833 20.3522504 8.12534609 20.37109375 10.74609375 C20.38463646 11.89646873 20.38463646 11.89646873 20.39845276 13.07008362 C20.41296898 14.69324836 20.42184541 16.31647181 20.42553711 17.93969727 C20.43744009 20.42499157 20.48661092 22.90780784 20.53710938 25.39257812 C20.54657276 26.96873786 20.5538082 28.54491287 20.55859375 30.12109375 C20.57812607 30.86491806 20.59765839 31.60874237 20.61778259 32.37510681 C20.59936523 34.47827148 20.59936523 34.47827148 20 38 C17.46508789 39.99243164 17.46508789 39.99243164 15 41 C15.309375 40.236875 15.61875 39.47375 15.9375 38.6875 C16.67893593 36.81210323 17.36228217 34.91315348 18 33 C16.02 33.495 16.02 33.495 14 34 C13.67 35.65 13.34 37.3 13 39 C12.67 37.68 12.34 36.36 12 35 C10.68 35 9.36 35 8 35 C8 36.65 8 38.3 8 40 C8.99 40 9.98 40 11 40 C11 40.66 11 41.32 11 42 C9.10489301 42.08160748 7.20875496 42.13946459 5.3125 42.1875 C3.72888672 42.23970703 3.72888672 42.23970703 2.11328125 42.29296875 C-1.66283227 41.93762557 -4.30050942 40.69949058 -7 38 C-7.13811523 35.44153448 -7.21309732 32.9119462 -7.23828125 30.3515625 C-7.246353 29.5832309 -7.25442474 28.81489929 -7.26274109 28.02328491 C-7.27659584 26.39412706 -7.28731176 24.76494002 -7.29516602 23.13574219 C-7.3123825 20.64201944 -7.35625362 18.14962114 -7.40039062 15.65625 C-7.41051689 14.07553061 -7.4190332 12.49479992 -7.42578125 10.9140625 C-7.44328934 10.16710114 -7.46079742 9.42013977 -7.47883606 8.65054321 C-7.45720843 3.49587055 -7.45720843 3.49587055 -5.16088867 1.00537109 C-3 0 -3 0 0 0 Z " fill="#309EDB" transform="translate(41,74)"/>
<path d="M0 0 C1.03439713 -0.00622879 2.06879425 -0.01245758 3.13453674 -0.01887512 C4.2502153 -0.00966537 5.36589386 -0.00045563 6.51538086 0.0090332 C7.66058701 0.0085347 8.80579315 0.00803619 9.98570251 0.00752258 C12.40747818 0.00986414 14.82925622 0.01959737 17.25097656 0.03613281 C20.96888859 0.05974247 24.68608474 0.05669201 28.40405273 0.05004883 C30.75366641 0.05562477 33.10327705 0.06273412 35.45288086 0.0715332 C36.57058365 0.0706218 37.68828644 0.06971039 38.83985901 0.06877136 C39.87110397 0.07830338 40.90234894 0.08783539 41.96484375 0.09765625 C42.87512833 0.10226364 43.7854129 0.10687103 44.72328186 0.11161804 C46.91772461 0.37231445 46.91772461 0.37231445 48.91772461 2.37231445 C49.17651367 4.77075195 49.17651367 4.77075195 49.18334961 7.74731445 C49.1872168 9.34833008 49.1872168 9.34833008 49.19116211 10.98168945 C49.18342773 12.1005957 49.17569336 13.21950195 49.16772461 14.37231445 C49.17932617 16.05067383 49.17932617 16.05067383 49.19116211 17.76293945 C49.18858398 18.8302832 49.18600586 19.89762695 49.18334961 20.99731445 C49.18109375 21.97958008 49.17883789 22.9618457 49.17651367 23.97387695 C48.91772461 26.37231445 48.91772461 26.37231445 46.91772461 28.37231445 C44.71875 28.62768555 44.71875 28.62768555 42.01538086 28.64575195 C40.55648437 28.67668945 40.55648437 28.67668945 39.06811523 28.70825195 C37.01351126 28.73424315 34.95879459 28.75250267 32.90405273 28.76293945 C31.93016602 28.78614258 30.9562793 28.8093457 29.95288086 28.83325195 C29.05964111 28.84146973 28.16640137 28.8496875 27.24609375 28.8581543 C24.73873302 29.17374552 24.73873302 29.17374552 23.10302734 31.40600586 C22.71187744 32.0548877 22.32072754 32.70376953 21.91772461 33.37231445 C19.98022461 32.55981445 19.98022461 32.55981445 17.91772461 31.37231445 C17.58772461 30.38231445 17.25772461 29.39231445 16.91772461 28.37231445 C16.26698975 28.3880249 15.61625488 28.40373535 14.94580078 28.41992188 C11.99903037 28.48226094 9.05239863 28.52130129 6.10522461 28.55981445 C5.08106445 28.58495117 4.0569043 28.61008789 3.00170898 28.63598633 C1.52734375 28.65048828 1.52734375 28.65048828 0.02319336 28.6652832 C-0.88277588 28.68099365 -1.78874512 28.6967041 -2.72216797 28.71289062 C-5.08227539 28.37231445 -5.08227539 28.37231445 -6.87646484 27.16650391 C-8.47137779 24.79334836 -8.46984435 23.22090709 -8.48071289 20.37231445 C-8.48458008 19.40293945 -8.48844727 18.43356445 -8.49243164 17.43481445 C-8.48083008 16.42418945 -8.46922852 15.41356445 -8.45727539 14.37231445 C-8.46887695 13.36168945 -8.48047852 12.35106445 -8.49243164 11.30981445 C-8.48856445 10.34043945 -8.48469727 9.37106445 -8.48071289 8.37231445 C-8.4773291 7.48543945 -8.47394531 6.59856445 -8.47045898 5.68481445 C-7.63358758 0.69937673 -4.62346474 -0.00319415 0 0 Z M-5.08227539 3.37231445 C-5.08227539 10.63231445 -5.08227539 17.89231445 -5.08227539 25.37231445 C-3.44516602 25.40969727 -1.80805664 25.44708008 -0.12133789 25.4855957 C2.01670655 25.55123742 4.15472635 25.61768536 6.29272461 25.68481445 C7.37295898 25.70737305 8.45319336 25.72993164 9.56616211 25.75317383 C10.59741211 25.78862305 11.62866211 25.82407227 12.69116211 25.8605957 C13.6442627 25.88677979 14.59736328 25.91296387 15.5793457 25.93994141 C16.35101074 26.08262451 17.12267578 26.22530762 17.91772461 26.37231445 C18.57772461 27.36231445 19.23772461 28.35231445 19.91772461 29.37231445 C20.57772461 29.37231445 21.23772461 29.37231445 21.91772461 29.37231445 C22.57772461 28.38231445 23.23772461 27.39231445 23.91772461 26.37231445 C26.25610352 25.93994141 26.25610352 25.93994141 29.14428711 25.8605957 C30.69116211 25.80742188 30.69116211 25.80742188 32.26928711 25.75317383 C33.34952148 25.73061523 34.42975586 25.70805664 35.54272461 25.68481445 C37.17467773 25.63357422 37.17467773 25.63357422 38.83959961 25.58129883 C41.53220524 25.49863111 44.22447752 25.42954358 46.91772461 25.37231445 C46.94660275 21.89316504 46.96448148 18.41404615 46.98022461 14.93481445 C46.99279297 13.44498047 46.99279297 13.44498047 47.00561523 11.92504883 C47.00883789 10.98081055 47.01206055 10.03657227 47.01538086 9.0637207 C47.02061768 8.18917236 47.02585449 7.31462402 47.03125 6.41357422 C47.14557269 4.3779124 47.14557269 4.3779124 45.91772461 3.37231445 C44.32161479 3.2789774 42.72139033 3.25486073 41.12255859 3.25878906 C39.59108437 3.25890236 39.59108437 3.25890236 38.02867126 3.25901794 C36.91826981 3.26417923 35.80786835 3.26934052 34.66381836 3.2746582 C32.96794334 3.27678062 32.96794334 3.27678062 31.23780823 3.27894592 C27.61025396 3.28456426 23.98276037 3.29711987 20.35522461 3.30981445 C17.90275154 3.31482709 15.45027751 3.31939041 12.99780273 3.32348633 C6.97108648 3.33453966 0.94441585 3.35181658 -5.08227539 3.37231445 Z " fill="#1792D7" transform="translate(54.082275390625,33.627685546875)"/>
<path d="M0 0 C1.06734375 0.24363281 1.06734375 0.24363281 2.15625 0.4921875 C5.00338849 1.00060509 7.61104691 1.13311504 10.5 1.125 C11.4178125 1.12757812 12.335625 1.13015625 13.28125 1.1328125 C16.40396891 1.04750553 16.40396891 1.04750553 21 0 C21 6.6 21 13.2 21 20 C14.16951788 23.41524106 14.16951788 23.41524106 9.9375 23.375 C9.12152344 23.38273437 8.30554687 23.39046875 7.46484375 23.3984375 C4.09491374 22.85369446 2.50485436 22.39421591 0 20 C-0.63213369 16.59095125 -0.46820549 13.26437095 -0.3125 9.8125 C-0.28994141 8.87212891 -0.26738281 7.93175781 -0.24414062 6.96289062 C-0.18519227 4.64032527 -0.10297785 2.32096224 0 0 Z " fill="#F3F9FD" transform="translate(37,84)"/>
<path d="M0 0 C2.33294775 -0.04241723 4.66702567 -0.04092937 7 0 C8 1 8 1 8.09765625 2.84765625 C8.04882812 5.92382812 8.04882812 5.92382812 8 9 C10.31 9 12.62 9 15 9 C15 20.55 15 32.1 15 44 C12.69 44 10.38 44 8 44 C8 46.64 8 49.28 8 52 C5.36 52 2.72 52 0 52 C0 49.36 0 46.72 0 44 C-0.66 44 -1.32 44 -2 44 C-2 43.01 -2 42.02 -2 41 C2.62 41 7.24 41 12 41 C12 39.35 12 37.7 12 36 C8.7 36 5.4 36 2 36 C2 35.01 2 34.02 2 33 C5.3 33 8.6 33 12 33 C12 31.35 12 29.7 12 28 C8.7 28 5.4 28 2 28 C2 27.01 2 26.02 2 25 C5.3 25 8.6 25 12 25 C12 23.35 12 21.7 12 20 C7.05 20 2.1 20 -3 20 C-3 19.01 -3 18.02 -3 17 C1.95 17 6.9 17 12 17 C12 15.02 12 13.04 12 11 C6.72 11 1.44 11 -4 11 C-4 10.34 -4 9.68 -4 9 C-2.68 9 -1.36 9 0 9 C0 6.03 0 3.06 0 0 Z " fill="#1A93D7" transform="translate(101,64)"/>
<path d="M0 0 C2.31 0 4.62 0 7 0 C7.99 1.98 8.98 3.96 10 6 C10.7425 5.835 11.485 5.67 12.25 5.5 C18.15818815 4.42578397 18.15818815 4.42578397 20.76953125 6.20703125 C22.41473704 8.60433112 22.13910992 9.85467414 21.6875 12.6875 C21.56761719 13.49574219 21.44773437 14.30398437 21.32421875 15.13671875 C21.21722656 15.75160156 21.11023438 16.36648437 21 17 C22.98 17.66 24.96 18.32 27 19 C27.09765625 25.15234375 27.09765625 25.15234375 27 27 C26 28 26 28 23.4375 28.0625 C22.633125 28.041875 21.82875 28.02125 21 28 C21.11859375 28.67546875 21.2371875 29.3509375 21.359375 30.046875 C22.40047487 37.25128611 22.40047487 37.25128611 20.5625 40.6875 C16.7309212 42.65001597 14.17802246 41.83560449 10 41 C9.01 43.475 9.01 43.475 8 46 C5.03 46 2.06 46 -1 46 C-1.33 44.02 -1.66 42.04 -2 40 C-4.64 40.66 -7.28 41.32 -10 42 C-9 38 -9 38 -8 37 C-2.64325323 36.53419593 -2.64325323 36.53419593 -0.1875 38.3125 C1 40 1 40 2 43 C4.01508358 43.73323796 4.01508358 43.73323796 6 44 C6.12375 43.21625 6.2475 42.4325 6.375 41.625 C7 39 7 39 9 37 C11.72869407 37.03287583 14.2966618 37.56397771 17 38 C18.27910918 35.03616818 18.27910918 35.03616818 17.3125 32.0625 C17 29 17 29 18.75 26.625 C21 25 21 25 24 25 C24 23.68 24 22.36 24 21 C23.21625 20.896875 22.4325 20.79375 21.625 20.6875 C19 20 19 20 17 17 C17.03143293 14.26009592 17.55478337 11.71582146 18 9 C17.38511719 9.03480469 16.77023438 9.06960937 16.13671875 9.10546875 C14.92435547 9.14607422 14.92435547 9.14607422 13.6875 9.1875 C12.88699219 9.22230469 12.08648437 9.25710937 11.26171875 9.29296875 C9 9 9 9 7.20703125 7.67578125 C6 6 6 6 6 3 C4.35 3 2.7 3 1 3 C0.87625 3.804375 0.7525 4.60875 0.625 5.4375 C0.41875 6.283125 0.2125 7.12875 0 8 C-2.70879335 9.35439668 -5.00933268 9.06501451 -8 9 C-8.66 7.68 -9.32 6.36 -10 5 C-7.69 5.33 -5.38 5.66 -3 6 C-2.01 4.02 -1.02 2.04 0 0 Z " fill="#1792D7" transform="translate(74,70)"/>
<path d="M0 0 C3.25 2.125 3.25 2.125 5 5 C5.81252952 8.9001417 5.32483711 10.44657382 3.3125 13.875 C-1.7064989 17.09473514 -7.20365981 17.25846466 -13 16 C-15.71006606 13.30782216 -16.85661889 11.76469927 -17.5625 8 C-17 5 -17 5 -15.25 2.125 C-10.33952882 -1.0856927 -5.70119912 -0.97644847 0 0 Z " fill="#2397D9" transform="translate(70,40)"/>
<path d="M0 0 C3.99449676 1.08349822 5.11670028 3.02636904 7.16015625 6.5859375 C7.74551004 10.17122945 7.40760651 12.01289479 5.97265625 15.3359375 C3.8042203 18.02778902 2.51785324 18.80507773 -0.83984375 19.5859375 C-4.55120315 19.43445344 -6.2884714 19.04789811 -9.15234375 16.6484375 C-11.16137809 14.19295108 -11.78410644 12.9946778 -12.21484375 9.8359375 C-11.81387521 6.36087684 -10.92930459 4.31689533 -8.53125 1.734375 C-5.75344924 -0.15170681 -3.29004715 -0.23068778 0 0 Z " fill="#118FD5" transform="translate(79.83984375,83.4140625)"/>
<path d="M0 0 C4.75 0.75 4.75 0.75 7 3 C7.23638693 5.61720833 7.3522504 8.12534609 7.37109375 10.74609375 C7.38463646 11.89646873 7.38463646 11.89646873 7.39845276 13.07008362 C7.41296898 14.69324836 7.42184541 16.31647181 7.42553711 17.93969727 C7.43744009 20.42499157 7.48661092 22.90780784 7.53710938 25.39257812 C7.54657276 26.96873786 7.5538082 28.54491287 7.55859375 30.12109375 C7.57812607 30.86491806 7.59765839 31.60874237 7.61778259 32.37510681 C7.59936523 34.47827148 7.59936523 34.47827148 7 38 C4.46508789 39.99243164 4.46508789 39.99243164 2 41 C2.309375 40.236875 2.61875 39.47375 2.9375 38.6875 C3.67893593 36.81210323 4.36228217 34.91315348 5 33 C3.515 33.495 3.515 33.495 2 34 C2.16298584 33.4337793 2.32597168 32.86755859 2.49389648 32.28417969 C3.01684172 29.92398883 3.11396742 27.86717843 3.09765625 25.453125 C3.09443359 24.60878906 3.09121094 23.76445313 3.08789062 22.89453125 C3.07951172 22.02183594 3.07113281 21.14914063 3.0625 20.25 C3.05798828 19.36183594 3.05347656 18.47367188 3.04882812 17.55859375 C3.037074 15.37232671 3.02064249 13.18619821 3 11 C2.39317383 11.16298584 1.78634766 11.32597168 1.16113281 11.49389648 C-1.37046976 12.08675822 -3.65284585 12.09667308 -6.25 12.0625 C-7.14203125 12.05347656 -8.0340625 12.04445313 -8.953125 12.03515625 C-9.62859375 12.02355469 -10.3040625 12.01195313 -11 12 C-11 11.34 -11 10.68 -11 10 C-10.40832031 9.95101562 -9.81664062 9.90203125 -9.20703125 9.8515625 C-4.80895528 9.43543133 -1.03071103 8.95034405 3 7 C3 6.01 3 5.02 3 4 C2.01 3.67 1.02 3.34 0 3 C0 2.01 0 1.02 0 0 Z " fill="#1792D7" transform="translate(54,74)"/>
<path d="M0 0 C0.33 0 0.66 0 1 0 C1 11.55 1 23.1 1 35 C-1.31 35 -3.62 35 -6 35 C-6 37.64 -6 40.28 -6 43 C-8.64 43 -11.28 43 -14 43 C-14 40.36 -14 37.72 -14 35 C-14.66 35 -15.32 35 -16 35 C-16 34.01 -16 33.02 -16 32 C-11.38 32 -6.76 32 -2 32 C-2 30.35 -2 28.7 -2 27 C-1.67 27 -1.34 27 -1 27 C-0.67 18.09 -0.34 9.18 0 0 Z " fill="#2899D9" transform="translate(115,73)"/>
<path d="M0 0 C1.9375 1.125 1.9375 1.125 3 3 C3.53852618 6.61581862 3.42236225 8.34111489 1.4375 11.4375 C-1 13 -1 13 -4.625 12.9375 C-8 12 -8 12 -10 9 C-10.32162076 5.9124407 -10.48724515 3.85984439 -8.9375 1.125 C-5.8930714 -0.64273274 -3.4368988 -0.36823916 0 0 Z " fill="#F8FCFD" transform="translate(81,87)"/>
<path d="M0 0 C2.33294775 -0.04241723 4.66702567 -0.04092937 7 0 C8 1 8 1 8.09765625 2.84765625 C8.04882812 5.92382812 8.04882812 5.92382812 8 9 C9.98 9 11.96 9 14 9 C14 11.31 14 13.62 14 16 C13.34 16.33 12.68 16.66 12 17 C12 15.02 12 13.04 12 11 C6.72 11 1.44 11 -4 11 C-4 10.34 -4 9.68 -4 9 C-2.68 9 -1.36 9 0 9 C0 6.03 0 3.06 0 0 Z " fill="#0E8DD5" transform="translate(101,64)"/>
<path d="M0 0 C2.64 0 5.28 0 8 0 C8 2.64 8 5.28 8 8 C7.01 8 6.02 8 5 8 C4.67 7.34 4.34 6.68 4 6 C3.401875 6.825 2.80375 7.65 2.1875 8.5 C1.465625 9.325 0.74375 10.15 0 11 C-0.99 11 -1.98 11 -3 11 C-3 10.34 -3 9.68 -3 9 C-5.64 11.31 -8.28 13.62 -11 16 C-11.66 15.67 -12.32 15.34 -13 15 C-11.40907948 10.86360664 -8.39525082 7.76786752 -5 5 C-4.34 5 -3.68 5 -3 5 C-3 5.66 -3 6.32 -3 7 C-1.68 6.01 -0.36 5.02 1 4 C0.67 2.68 0.34 1.36 0 0 Z " fill="#1992D7" transform="translate(90,40)"/>
<path d="M0 0 C2.5 0.25 2.5 0.25 4.5 2.25 C4.6953125 5.2890625 4.6953125 5.2890625 4.625 8.875 C4.60695313 10.06351563 4.58890625 11.25203125 4.5703125 12.4765625 C4.54710937 13.39179687 4.52390625 14.30703125 4.5 15.25 C3.51 15.25 2.52 15.25 1.5 15.25 C1.5 10.96 1.5 6.67 1.5 2.25 C0.51 2.25 -0.48 2.25 -1.5 2.25 C-1.5 6.54 -1.5 10.83 -1.5 15.25 C-2.49 15.25 -3.48 15.25 -4.5 15.25 C-4.55386629 13.12527424 -4.59273071 11.00016348 -4.625 8.875 C-4.64820313 7.69164063 -4.67140625 6.50828125 -4.6953125 5.2890625 C-4.45101075 1.48772725 -3.86718477 0.38671848 0 0 Z " fill="#2397D9" transform="translate(47.5,64.75)"/>
<path d="M0 0 C3 0.25 3 0.25 5 2.25 C5.25 5.25 5.25 5.25 5 8.25 C3 10.25 3 10.25 0 10.5 C-3 10.25 -3 10.25 -5 8.25 C-5.25 5.25 -5.25 5.25 -5 2.25 C-3 0.25 -3 0.25 0 0 Z " fill="#FAFDFE" transform="translate(61,42.75)"/>
<path d="M0 0 C2.31 0 4.62 0 7 0 C7.99 1.98 8.98 3.96 10 6 C11.65 6 13.3 6 15 6 C14.67 6.99 14.34 7.98 14 9 C11.69 8.67 9.38 8.34 7 8 C6.67 6.35 6.34 4.7 6 3 C4.35 3 2.7 3 1 3 C0.87625 3.804375 0.7525 4.60875 0.625 5.4375 C0.41875 6.283125 0.2125 7.12875 0 8 C-2.70879335 9.35439668 -5.00933268 9.06501451 -8 9 C-8.66 7.68 -9.32 6.36 -10 5 C-7.69 5.33 -5.38 5.66 -3 6 C-2.01 4.02 -1.02 2.04 0 0 Z " fill="#0B8CD4" transform="translate(74,70)"/>
<path d="M0 0 C0.66 1.32 1.32 2.64 2 4 C3.32 3.67 4.64 3.34 6 3 C5.67 3.598125 5.34 4.19625 5 4.8125 C3.79212012 7.05386471 3.79212012 7.05386471 4 10 C1.89646505 10.0810206 -0.20795952 10.13919907 -2.3125 10.1875 C-4.07013672 10.23970703 -4.07013672 10.23970703 -5.86328125 10.29296875 C-9 10 -9 10 -10.91796875 8.67578125 C-12 7 -12 7 -12 4 C-11.195625 4.495 -11.195625 4.495 -10.375 5 C-7.4608939 6.22699204 -5.13132292 6.14233286 -2 6 C-1.34 4.02 -0.68 2.04 0 0 Z " fill="#35A0DC" transform="translate(66,46)"/>
<path d="M0 0 C-0.6456001 3.48624056 -1.92360237 6.12498789 -4 9 C-4.99 9 -5.98 9 -7 9 C-7 8.34 -7 7.68 -7 7 C-7.99 7 -8.98 7 -10 7 C-10 5.35 -10 3.7 -10 2 C-8.68 2 -7.36 2 -6 2 C-5.67 2.99 -5.34 3.98 -5 5 C-4.814375 4.0409375 -4.814375 4.0409375 -4.625 3.0625 C-4.41875 2.381875 -4.2125 1.70125 -4 1 C-2 0 -2 0 0 0 Z " fill="#93CCEC" transform="translate(59,107)"/>
<path d="M0 0 C3.1875 -0.375 3.1875 -0.375 7 0 C10.41365233 3.05049783 11.88658496 4.77511754 12.3125 9.375 C12.1578125 10.674375 12.1578125 10.674375 12 12 C11.01 12 10.02 12 9 12 C8.67 9.36 8.34 6.72 8 4 C3.545 3.01 3.545 3.01 -1 2 C-0.67 1.34 -0.34 0.68 0 0 Z " fill="#108ED5" transform="translate(75,84)"/>
<path d="M0 0 C0.99 0 1.98 0 3 0 C3 4.95 3 9.9 3 15 C2.01 15 1.02 15 0 15 C0 10.05 0 5.1 0 0 Z " fill="#1B93D7" transform="translate(46,89)"/>
<path d="M0 0 C0.99 0 1.98 0 3 0 C3 4.95 3 9.9 3 15 C2.01 15 1.02 15 0 15 C0 10.05 0 5.1 0 0 Z " fill="#1D94D8" transform="translate(53,88)"/>
<path d="M0 0 C0.99 0 1.98 0 3 0 C3 4.95 3 9.9 3 15 C2.01 15 1.02 15 0 15 C0 10.05 0 5.1 0 0 Z " fill="#1C94D7" transform="translate(39,88)"/>
<path d="M0 0 C2.31 0.66 4.62 1.32 7 2 C7 2.33 7 2.66 7 3 C5.329375 3.309375 5.329375 3.309375 3.625 3.625 C-0.26599195 4.61628301 -0.26599195 4.61628301 -1.4375 8.125 C-1.623125 9.07375 -1.80875 10.0225 -2 11 C-2.99 10.34 -3.98 9.68 -5 9 C-4.5206753 4.68607774 -3.2542015 2.83430453 0 0 Z " fill="#2D9CDA" transform="translate(73,84)"/>
<path d="M0 0 C-0.42257276 1.4835001 -0.86356322 2.96176424 -1.3125 4.4375 C-1.55613281 5.26121094 -1.79976562 6.08492187 -2.05078125 6.93359375 C-2.36402344 7.61550781 -2.67726562 8.29742187 -3 9 C-3.99 9.33 -4.98 9.66 -6 10 C-6.22692276 6.67179946 -6.32162419 4.58198664 -4.6875 1.625 C-3 0 -3 0 0 0 Z " fill="#1791D7" transform="translate(59,41)"/>
<path d="M0 0 C0.33 0.99 0.66 1.98 1 3 C-1.51830747 6.12270126 -2.7261549 6.94523098 -6.75 7.75 C-8.35875 7.87375 -8.35875 7.87375 -10 8 C-6.66666667 5.33333333 -3.33333333 2.66666667 0 0 Z " fill="#1D94D8" transform="translate(85,95)"/>
<path d="M0 0 C0.33 0.66 0.66 1.32 1 2 C2.45880109 1.85892253 3.91703551 1.71197585 5.375 1.5625 C6.18710938 1.48128906 6.99921875 1.40007812 7.8359375 1.31640625 C10.04272805 1.10909886 10.04272805 1.10909886 12 0 C12 2.64 12 5.28 12 8 C11.34 8 10.68 8 10 8 C10 6.35 10 4.7 10 3 C6.7 3 3.4 3 0 3 C0 2.01 0 1.02 0 0 Z " fill="#2699D9" transform="translate(103,89)"/>
<path d="M0 0 C1.4540625 0.0309375 1.4540625 0.0309375 2.9375 0.0625 C2.6075 1.0525 2.2775 2.0425 1.9375 3.0625 C-1.625 4.25 -1.625 4.25 -5.0625 5.0625 C-3.9375 0.08035714 -3.9375 0.08035714 0 0 Z " fill="#2598D9" transform="translate(69.0625,106.9375)"/>
<path d="M0 0 C0.33 1.32 0.66 2.64 1 4 C2.32 4 3.64 4 5 4 C5 4.66 5 5.32 5 6 C2.03 6 -0.94 6 -4 6 C-4 5.34 -4 4.68 -4 4 C-2.68 4 -1.36 4 0 4 C0 2.68 0 1.36 0 0 Z " fill="#0087D3" transform="translate(47,110)"/>
<path d="M0 0 C-1 3 -1 3 -3 4 C-3.99 5.485 -3.99 5.485 -5 7 C-5.66 5.68 -6.32 4.36 -7 3 C-3.375 0 -3.375 0 0 0 Z " fill="#1F96D8" transform="translate(41,74)"/>
<path d="M0 0 C0.99 0 1.98 0 3 0 C3 1.98 3 3.96 3 6 C2.01 6 1.02 6 0 6 C0 4.02 0 2.04 0 0 Z " fill="#C8E5F5" transform="translate(103,108)"/>
<path d="M0 0 C0.99 0 1.98 0 3 0 C3 1.98 3 3.96 3 6 C2.01 6 1.02 6 0 6 C0 4.02 0 2.04 0 0 Z " fill="#C8E5F5" transform="translate(103,67)"/>
</svg>
