<?xml version="1.0" encoding="UTF-8"?>
<svg version="1.1" xmlns="http://www.w3.org/2000/svg" width="150" height="150">
<path d="M0 0 C11.93999104 10.01904611 21.75420815 24.34577071 23.75 40.125 C25.49373502 61.89833415 22.13280346 79.76701618 7.796875 96.8515625 C-2.58601979 108.38370901 -17.32927675 117.09023346 -32.98144531 118.34375 C-55.07465729 119.49631404 -72.47410546 115.22907 -89.25 100.125 C-101.74111422 88.30213469 -108.20872247 72.25001771 -108.71826172 55.29516602 C-108.92673847 34.47154594 -102.90117592 18.49124239 -88.453125 3.2265625 C-64.04032591 -19.82996998 -26.11262396 -20.05638286 0 0 Z " fill="#FBFCFD" transform="translate(117.25,22.875)"/>
<path d="M0 0 C3.3 0 6.6 0 10 0 C10.495 4.455 10.495 4.455 11 9 C12.58199631 9.64910154 14.16565724 10.29414694 15.75 10.9375 C16.63171875 11.29714844 17.5134375 11.65679687 18.421875 12.02734375 C21.64271033 13.30113418 21.64271033 13.30113418 25 14 C26.9830506 13.04874049 26.9830506 13.04874049 28.75 11.5625 C29.36359375 11.08941406 29.9771875 10.61632813 30.609375 10.12890625 C31.06828125 9.75636719 31.5271875 9.38382813 32 9 C33.03531726 9.90027588 34.05294165 10.82093035 35.0625 11.75 C35.63097656 12.26046875 36.19945313 12.7709375 36.78515625 13.296875 C38 15 38 15 37.7890625 17.0859375 C37 19 37 19 35.3125 20.875 C33.66075157 22.99396902 33.66075157 22.99396902 34.625 25.75 C35.07875 26.8225 35.5325 27.895 36 29 C36.54681172 30.45641197 37.08838897 31.91479882 37.625 33.375 C38.07875 34.57125 38.5325 35.7675 39 37 C41.97 37.33 44.94 37.66 48 38 C48 41.3 48 44.6 48 48 C46.618125 48.0825 45.23625 48.165 43.8125 48.25 C40.29704212 49.0009285 39.26646233 49.60673433 37.21875 52.62890625 C34.39517537 58.50353903 34.39517537 58.50353903 34.81640625 64.7421875 C35.20699219 65.48726563 35.59757812 66.23234375 36 67 C36.37125 67.763125 36.7425 68.52625 37.125 69.3125 C37.41375 69.869375 37.7025 70.42625 38 71 C36.625 72.5 36.625 72.5 35 74 C34.34 74 33.68 74 33 74 C31.23828125 71.953125 31.23828125 71.953125 29.3125 69.25 C28.66925781 68.36828125 28.02601562 67.4865625 27.36328125 66.578125 C26 64 26 64 26.16796875 61.91796875 C27.03728453 59.91405303 27.96401149 57.98593455 29 56.0625 C30.55636508 52.99488187 31.66228357 50.46159345 32 47 C32.06316406 46.35546875 32.12632813 45.7109375 32.19140625 45.046875 C32.59741294 37.5553968 30.17143535 31.48980682 26.25 25.1875 C20.16464651 19.27118411 13.24154782 15.99419773 4.75 15.625 C-2.52741026 15.75424362 -8.86480691 17.79016748 -14 23 C-14.66 23 -15.32 23 -16 23 C-16.42925781 23.89138672 -16.42925781 23.89138672 -16.8671875 24.80078125 C-18 27 -18 27 -20.125 30.1875 C-23.36217171 36.68627491 -23.08813379 44.94741162 -22 52 C-20.95085581 54.78440689 -19.82029658 56.92836422 -18.09375 59.3359375 C-17 61 -17 61 -17 64 C-18.53125 66.48046875 -18.53125 66.48046875 -20.5 69.1875 C-21.1496875 70.08855469 -21.799375 70.98960938 -22.46875 71.91796875 C-23.22671875 72.94857422 -23.22671875 72.94857422 -24 74 C-25.32 73.34 -26.64 72.68 -28 72 C-28 70.68 -28 69.36 -28 68 C-27.2265625 67.319375 -27.2265625 67.319375 -26.4375 66.625 C-24.69907144 65.04090114 -24.69907144 65.04090114 -25.125 62.4375 C-26.27665668 57.91313447 -27.60060219 53.45342951 -29 49 C-31.97 49 -34.94 49 -38 49 C-38 45.37 -38 41.74 -38 38 C-35.36 37.67 -32.72 37.34 -30 37 C-29.34865075 35.43979133 -28.70417036 33.87671421 -28.0625 32.3125 C-27.70285156 31.44238281 -27.34320313 30.57226562 -26.97265625 29.67578125 C-26.02490003 27.06850009 -25.29057462 24.76045887 -25 22 C-26.83317376 18.70751892 -26.83317376 18.70751892 -29 16 C-27.02 13.69 -25.04 11.38 -23 9 C-19 11 -19 11 -17.5 12.6875 C-17.005 13.120625 -16.51 13.55375 -16 14 C-14.13259651 13.69330313 -14.13259651 13.69330313 -12 13 C-11.17242187 12.7834375 -10.34484375 12.566875 -9.4921875 12.34375 C-6.72758762 11.45247601 -4.43522734 10.59490241 -2 9 C-0.48576152 5.86336316 -0.31221294 3.53841331 0 0 Z " fill="#F7FBFD" transform="translate(71,28)"/>
<path d="M0 0 C0.70253906 0.00386719 1.40507813 0.00773437 2.12890625 0.01171875 C2.83144531 0.00785156 3.53398438 0.00398438 4.2578125 0 C9.50229247 0.01010497 9.50229247 0.01010497 10.62890625 1.13671875 C10.70070589 2.65599913 10.71282632 4.17839357 10.69140625 5.69921875 C10.68238281 6.52550781 10.67335937 7.35179687 10.6640625 8.203125 C10.65246094 8.84121094 10.64085937 9.47929688 10.62890625 10.13671875 C11.49515625 10.26046875 12.36140625 10.38421875 13.25390625 10.51171875 C16.52404478 11.11729996 19.50147524 12.0197791 22.62890625 13.13671875 C23.18578125 12.45609375 23.74265625 11.77546875 24.31640625 11.07421875 C26.62890625 9.13671875 26.62890625 9.13671875 29 9.27734375 C32.13213138 10.30122028 33.68439987 11.62540102 36.00390625 13.94921875 C36.71289062 14.63628906 37.421875 15.32335938 38.15234375 16.03125 C39.62890625 18.13671875 39.62890625 18.13671875 39.46484375 20.29296875 C38.62890625 22.13671875 38.62890625 22.13671875 36.87890625 23.82421875 C35.36042948 26.03136365 35.36042948 26.03136365 36.1015625 28.28515625 C36.65458813 29.8747834 37.24256243 31.45274454 37.8671875 33.015625 C38.62890625 35.13671875 38.62890625 35.13671875 38.62890625 38.13671875 C39.26699219 38.12511719 39.90507813 38.11351562 40.5625 38.1015625 C41.38878906 38.09253906 42.21507813 38.08351562 43.06640625 38.07421875 C44.30197266 38.05681641 44.30197266 38.05681641 45.5625 38.0390625 C47.62890625 38.13671875 47.62890625 38.13671875 48.62890625 39.13671875 C48.72865657 41.64807979 48.76772808 44.1257529 48.75390625 46.63671875 C48.75777344 47.33925781 48.76164062 48.04179688 48.765625 48.765625 C48.75552003 54.01010497 48.75552003 54.01010497 47.62890625 55.13671875 C46.10962587 55.20851839 44.58723143 55.22063882 43.06640625 55.19921875 C42.24011719 55.19019531 41.41382812 55.18117187 40.5625 55.171875 C39.92441406 55.16027344 39.28632812 55.14867187 38.62890625 55.13671875 C38.09496446 56.54849705 37.57725521 57.96642119 37.06640625 59.38671875 C36.77636719 60.175625 36.48632812 60.96453125 36.1875 61.77734375 C35.57341384 64.37110628 35.69455581 65.66623283 36.62890625 68.13671875 C37.16515625 68.79671875 37.70140625 69.45671875 38.25390625 70.13671875 C39.62890625 72.13671875 39.62890625 72.13671875 39.69140625 74.07421875 C38.0222086 77.31442596 35.54904362 79.03421984 32.62890625 81.13671875 C31.63890625 81.13671875 30.64890625 81.13671875 29.62890625 81.13671875 C27.71862945 78.94464646 26.0499893 76.81186583 24.37890625 74.44921875 C23.90710938 73.82337891 23.4353125 73.19753906 22.94921875 72.55273438 C19.60770299 67.88731399 19.60770299 67.88731399 19.70703125 64.37109375 C20.95496303 61.34644554 22.79123139 58.8358037 24.62890625 56.13671875 C26.65830758 50.07487061 26.76308712 42.48548554 24.72265625 36.4609375 C21.7013746 30.69919845 17.99332085 26.47494529 11.83984375 24.02734375 C5.55768106 22.28484607 -2.139289 21.90056331 -8.30859375 24.32421875 C-14.64924679 28.07685014 -19.36402705 31.90902349 -21.37109375 39.13671875 C-22.32405065 47.47022958 -22.00064816 54.05622377 -17.37109375 61.13671875 C-16.71109375 61.79671875 -16.05109375 62.45671875 -15.37109375 63.13671875 C-15.56568269 67.89991766 -18.22510178 71.22867159 -20.93359375 74.94921875 C-21.35833984 75.54669922 -21.78308594 76.14417969 -22.22070312 76.75976562 C-23.26332634 78.22412408 -24.31619827 79.6811761 -25.37109375 81.13671875 C-29.85180659 80.28927958 -32.00943722 78.11636886 -35.37109375 75.13671875 C-34.89185531 72.0216689 -34.18817232 70.92413439 -32.05859375 68.44921875 C-30.11000331 65.39862125 -30.11000331 65.39862125 -30.68359375 62.78515625 C-31.62947539 60.12486414 -32.50697438 58.26522043 -34.37109375 56.13671875 C-36.84046036 55.30073526 -38.84512484 55.13671875 -41.4453125 55.13671875 C-42.08082031 55.13671875 -42.71632813 55.13671875 -43.37109375 55.13671875 C-44.37109375 54.13671875 -44.37109375 54.13671875 -44.46875 50.7578125 C-44.46207744 49.36324798 -44.45011907 47.96870132 -44.43359375 46.57421875 C-44.42908203 45.86330078 -44.42457031 45.15238281 -44.41992188 44.41992188 C-44.40810239 42.65881862 -44.39016638 40.89775839 -44.37109375 39.13671875 C-40.47445723 37.45061027 -37.6354331 36.93837738 -33.37109375 37.13671875 C-33.24734375 36.24984375 -33.12359375 35.36296875 -32.99609375 34.44921875 C-32.42696639 31.43284373 -31.60494939 28.93345821 -30.37109375 26.13671875 C-31.21671875 25.39421875 -32.06234375 24.65171875 -32.93359375 23.88671875 C-35.37109375 21.13671875 -35.37109375 21.13671875 -35.30859375 19.26171875 C-34.01486944 16.32927699 -32.1156279 14.59627258 -29.80859375 12.38671875 C-28.56916016 11.18789063 -28.56916016 11.18789063 -27.3046875 9.96484375 C-26.66660156 9.3615625 -26.02851562 8.75828125 -25.37109375 8.13671875 C-23.06368882 9.23045747 -21.3435493 10.16159761 -19.43359375 11.88671875 C-18.75296875 12.29921875 -18.07234375 12.71171875 -17.37109375 13.13671875 C-14.90879378 12.41926519 -14.90879378 12.41926519 -12.37109375 11.13671875 C-10.37866125 10.76078809 -8.37922635 10.4169233 -6.37109375 10.13671875 C-6.38269531 9.49863281 -6.39429688 8.86054687 -6.40625 8.203125 C-6.41527344 7.37683594 -6.42429688 6.55054688 -6.43359375 5.69921875 C-6.44519531 4.87550781 -6.45679688 4.05179688 -6.46875 3.203125 C-6.27022527 -0.99765836 -3.57110373 0.00688074 0 0 Z M-2.37109375 3.13671875 C-2.55671875 5.24046875 -2.55671875 5.24046875 -2.74609375 7.38671875 C-3.43164499 10.59267894 -3.80930483 11.76878657 -6.58984375 13.58984375 C-9.1663515 14.60529092 -11.69264619 15.43581658 -14.37109375 16.13671875 C-15.08265625 16.38292969 -15.79421875 16.62914062 -16.52734375 16.8828125 C-17.13578125 16.96660156 -17.74421875 17.05039062 -18.37109375 17.13671875 C-20.99609375 14.69921875 -20.99609375 14.69921875 -23.37109375 12.13671875 C-24.03109375 12.13671875 -24.69109375 12.13671875 -25.37109375 12.13671875 C-26.95565241 13.92395816 -26.95565241 13.92395816 -28.49609375 16.13671875 C-29.30433594 17.25046875 -29.30433594 17.25046875 -30.12890625 18.38671875 C-30.53882813 18.96421875 -30.94875 19.54171875 -31.37109375 20.13671875 C-30.69046875 20.85859375 -30.00984375 21.58046875 -29.30859375 22.32421875 C-27.37109375 25.13671875 -27.37109375 25.13671875 -27.62109375 27.48046875 C-28.39713032 30.22893161 -29.34283659 32.81029013 -30.43359375 35.44921875 C-30.79582031 36.33222656 -31.15804687 37.21523438 -31.53125 38.125 C-31.80839844 38.78886719 -32.08554687 39.45273438 -32.37109375 40.13671875 C-35.01109375 40.46671875 -37.65109375 40.79671875 -40.37109375 41.13671875 C-40.37109375 44.76671875 -40.37109375 48.39671875 -40.37109375 52.13671875 C-37.40109375 52.13671875 -34.43109375 52.13671875 -31.37109375 52.13671875 C-27.45534521 64.59815751 -27.45534521 64.59815751 -27.37109375 68.13671875 C-29.30859375 70.51171875 -29.30859375 70.51171875 -31.37109375 72.13671875 C-30.57991471 74.13655409 -30.57991471 74.13655409 -29.37109375 76.13671875 C-28.38109375 76.46671875 -27.39109375 76.79671875 -26.37109375 77.13671875 C-23.73109375 73.50671875 -21.09109375 69.87671875 -18.37109375 66.13671875 C-19.36109375 64.67234375 -20.35109375 63.20796875 -21.37109375 61.69921875 C-25.55533223 54.04464031 -25.38513104 46.60393009 -24.37109375 38.13671875 C-23.37867123 34.92972374 -22.2585885 32.96796088 -20.37109375 30.13671875 C-20.03207031 29.43160156 -19.69304688 28.72648437 -19.34375 28 C-18.05489285 25.5309845 -16.91815721 25.2381516 -14.37109375 24.13671875 C-12.62105441 23.12096165 -10.88569256 22.08301122 -9.15234375 21.0390625 C-3.27904215 18.06377156 4.16531222 18.19254693 10.39453125 19.890625 C18.76765315 23.08695147 23.43019462 27.27562727 27.62890625 35.13671875 C30.94699486 42.56291706 30.21839408 49.65397712 27.5 57.1328125 C26.62890625 59.13671875 26.62890625 59.13671875 24.87890625 61.94921875 C23.42338872 63.98838503 23.42338872 63.98838503 23.859375 65.9765625 C24.79149974 68.59313601 26.11334229 70.60356238 27.69140625 72.88671875 C28.23925781 73.6859375 28.78710938 74.48515625 29.3515625 75.30859375 C29.77308594 75.911875 30.19460937 76.51515625 30.62890625 77.13671875 C31.94890625 76.47671875 33.26890625 75.81671875 34.62890625 75.13671875 C34.62890625 73.81671875 34.62890625 72.49671875 34.62890625 71.13671875 C34.07203125 70.57984375 33.51515625 70.02296875 32.94140625 69.44921875 C31.62890625 67.13671875 31.62890625 67.13671875 32.02734375 65.05859375 C32.81208293 62.71214592 33.71378033 60.43479281 34.62890625 58.13671875 C34.83515625 57.16734375 35.04140625 56.19796875 35.25390625 55.19921875 C37.03127082 52.5331719 38.18546934 52.52420592 41.25390625 51.82421875 C42.69765625 51.59734375 44.14140625 51.37046875 45.62890625 51.13671875 C45.62890625 47.83671875 45.62890625 44.53671875 45.62890625 41.13671875 C42.65890625 40.80671875 39.68890625 40.47671875 36.62890625 40.13671875 C35.73259951 38.2508653 34.8625675 36.35250798 34.00390625 34.44921875 C33.51664062 33.39347656 33.029375 32.33773437 32.52734375 31.25 C31.62890625 28.13671875 31.62890625 28.13671875 32.35546875 25.3671875 C33.62890625 23.13671875 33.62890625 23.13671875 35.62890625 21.13671875 C35.75450034 19.1980833 35.75450034 19.1980833 34.62890625 17.13671875 C32.7306255 15.29102195 30.73866033 13.7527006 28.62890625 12.13671875 C27.76265625 13.00296875 26.89640625 13.86921875 26.00390625 14.76171875 C24.33203125 16.14453125 24.33203125 16.14453125 22.62890625 17.13671875 C19.75390625 16.63671875 19.75390625 16.63671875 16.62890625 15.13671875 C15.17489256 14.58356137 13.7163742 14.04212086 12.25390625 13.51171875 C11.05765625 13.05796875 9.86140625 12.60421875 8.62890625 12.13671875 C8.13390625 7.68171875 8.13390625 7.68171875 7.62890625 3.13671875 C4.32890625 3.13671875 1.02890625 3.13671875 -2.37109375 3.13671875 Z " fill="#1591D6" transform="translate(73.37109375,24.86328125)"/>
<path d="M0 0 C11.93999104 10.01904611 21.75420815 24.34577071 23.75 40.125 C25.49373502 61.89833415 22.13280346 79.76701618 7.796875 96.8515625 C-2.58601979 108.38370901 -17.32927675 117.09023346 -32.98144531 118.34375 C-55.07465729 119.49631404 -72.47410546 115.22907 -89.25 100.125 C-101.74111422 88.30213469 -108.20872247 72.25001771 -108.71826172 55.29516602 C-108.92673847 34.47154594 -102.90117592 18.49124239 -88.453125 3.2265625 C-64.04032591 -19.82996998 -26.11262396 -20.05638286 0 0 Z M-89.25 9.125 C-101.65882416 24.651312 -107.14407176 41.3459228 -105.25 61.125 C-102.20090519 79.57356357 -92.38720921 94.21166744 -77.36328125 105.08203125 C-72.84931177 108.04414673 -68.30545454 110.25124868 -63.25 112.125 C-62.425 112.44339844 -61.6 112.76179688 -60.75 113.08984375 C-48.56073746 117.12196261 -34.26305509 116.29689779 -22.25 112.125 C-21.23292969 111.77308594 -20.21585937 111.42117187 -19.16796875 111.05859375 C-12.22198505 108.41125657 -6.8656622 104.94304415 -1.25 100.125 C-0.43402344 99.50753906 0.38195312 98.89007813 1.22265625 98.25390625 C9.36588021 91.39446721 14.36392782 82.05747839 17.75 72.125 C18.06839844 71.24328125 18.38679688 70.3615625 18.71484375 69.453125 C23.47777421 54.61560891 21.16694806 37.79371548 14.625 23.875 C5.56783443 7.08703202 -8.05669501 -3.39170141 -26.046875 -9.296875 C-48.74795366 -15.25389564 -73.32889977 -8.20683063 -89.25 9.125 Z " fill="#4E4F50" transform="translate(117.25,22.875)"/>
<path d="M0 0 C0 2.97 0 5.94 0 9 C1.32 9 2.64 9 4 9 C4 6.03 4 3.06 4 0 C8.83766699 0.41465717 10.85646376 2.4198615 14 6 C15.73479073 9.46958146 15.47099142 13.20660968 15 17 C12.07913669 22.64028777 12.07913669 22.64028777 8 24 C7.99373061 28.06390835 8.05336191 32.12427696 8.125 36.1875 C8.12242188 37.33798828 8.11984375 38.48847656 8.1171875 39.67382812 C8.05270575 45.60291929 8.05270575 45.60291929 10.35839844 50.84619141 C12.14674912 52.36379599 12.14674912 52.36379599 15 54 C16.84467846 57.68935692 16.35009552 61.96435342 16 66 C14.30630525 70.18966595 12.11686985 72.14740857 8 74 C6.515 73.505 6.515 73.505 5 73 C5 70.03 5 67.06 5 64 C3.515 64.495 3.515 64.495 2 65 C2 67.64 2 70.28 2 73 C-4.38453501 72.63166144 -4.38453501 72.63166144 -7.375 69.5625 C-10.04340283 65.354634 -10.69016525 61.95998763 -10 57 C-7 51.5 -7 51.5 -4 50 C-3.85481818 45.9170404 -3.76596653 41.83474359 -3.6875 37.75 C-3.64560547 36.59113281 -3.60371094 35.43226562 -3.56054688 34.23828125 C-3.20312549 27.73072248 -3.20312549 27.73072248 -6.39453125 22.453125 C-7.68423828 21.73382813 -7.68423828 21.73382813 -9 21 C-11.63374556 16.92893598 -11.93259918 12.70251283 -11 8 C-8.31139892 3.55473626 -5.41834583 0 0 0 Z " fill="#1590D6" transform="translate(73,51)"/>
<path d="M0 0 C0.66 0.33 1.32 0.66 2 1 C1.67 2.65 1.34 4.3 1 6 C3.97 6.33 6.94 6.66 10 7 C10.66 4.69 11.32 2.38 12 0 C15.875 1.75 15.875 1.75 17 4 C17.04284274 8.43850792 16.77414405 11.97613207 14.0625 15.5625 C12 17 12 17 10 17 C10.01941119 21.07596929 10.07109326 25.15012802 10.15258789 29.2253418 C10.17577078 30.61128963 10.19016441 31.9974137 10.19555664 33.38354492 C10.20484197 35.3770332 10.24845978 37.37026828 10.29296875 39.36328125 C10.3086792 40.56251221 10.32438965 41.76174316 10.34057617 42.99731445 C10.68927596 46.18616128 10.68927596 46.18616128 13.41918945 47.72729492 C14.27085693 48.1472876 15.12252441 48.56728027 16 49 C18.44031962 52.66047942 18.73696072 55.74105256 18 60 C16 62.5 16 62.5 14 64 C13.67 62.02 13.34 60.04 13 58 C8.38492226 56.95785309 8.38492226 56.95785309 4 58 C3.34227572 61.02934491 3.34227572 61.02934491 3 64 C1 63.0625 1 63.0625 -1 61 C-1.67833277 57.88447161 -1.82478251 55.08396938 -1 52 C-0.17661133 51.27192139 0.64677734 50.54384277 1.49511719 49.79370117 C4.62523016 46.30267946 4.64794821 44.57738992 4.70703125 39.94921875 C4.72215256 39.29041214 4.73727386 38.63160553 4.75285339 37.95283508 C4.79558566 35.864038 4.80455265 33.7766898 4.8125 31.6875 C4.83565614 30.26493583 4.86102383 28.84240583 4.88867188 27.41992188 C4.95137616 23.94664196 4.98382784 20.47384387 5 17 C4.37609375 16.8659375 3.7521875 16.731875 3.109375 16.59375 C1 16 1 16 -0.75 14.5 C-2.60426618 10.79146764 -2.57810336 7.07675486 -2 3 C-1.34 2.01 -0.68 1.02 0 0 Z " fill="#F5FAFD" transform="translate(68,56)"/>
</svg>
